<?xml version="1.0" standalone="no"?>
<!DOCTYPE svg PUBLIC "-//W3C//DTD SVG 20010904//EN"
 "http://www.w3.org/TR/2001/REC-SVG-20010904/DTD/svg10.dtd">
<svg version="1.0" xmlns="http://www.w3.org/2000/svg"
 viewBox="0 0 2604.000000 2604.000000"
 preserveAspectRatio="xMidYMid meet">
<metadata>
Created by potrace 1.13, written by Peter Selinger 2001-2015
</metadata>
<g transform="translate(0.000000,2604.000000) scale(0.100000,-0.100000)"
fill="#000000" stroke="none">
<path d="M10445 19645 c-50 -18 -95 -63 -160 -160 -202 -304 -491 -1092 -780
-2125 -36 -129 -69 -238 -73 -241 -4 -4 -59 -26 -122 -50 -397 -145 -921 -415
-1313 -676 -666 -444 -1215 -1000 -1570 -1593 -447 -747 -633 -1582 -556
-2500 101 -1191 640 -2158 1640 -2936 498 -388 1172 -742 1904 -999 544 -191
1207 -355 1736 -430 101 -14 199 -28 216 -31 l33 -5 -65 -128 c-258 -515 -415
-1085 -415 -1504 0 -282 47 -489 201 -882 39 -100 43 -118 44 -200 0 -102 -10
-126 -105 -240 -64 -76 -91 -147 -98 -252 -9 -167 56 -338 181 -469 49 -53 89
-83 136 -106 l66 -33 2130 0 c2003 0 2137 1 2250 18 437 66 738 191 948 396
83 80 153 177 182 249 13 31 24 44 44 47 181 37 293 86 398 174 39 33 160 161
269 283 235 265 316 347 405 411 128 91 243 127 409 127 175 0 270 -21 610
-139 197 -68 355 -110 539 -143 173 -31 550 -33 681 -4 118 26 222 62 315 109
105 53 237 182 284 278 137 279 42 509 -227 550 -129 19 -218 -8 -397 -121
-171 -107 -319 -144 -580 -143 -279 0 -361 26 -605 188 -175 116 -205 132
-310 168 -206 70 -469 90 -650 48 -120 -27 -259 -92 -355 -164 -123 -93 -293
-294 -346 -410 -12 -27 -14 -25 -69 90 -150 313 -344 529 -670 746 -127 85
-305 258 -409 400 -134 181 -269 424 -349 627 l-30 75 32 3 c1221 108 2318
382 3217 802 895 418 1561 992 1923 1660 315 579 425 1226 350 2050 -50 551
-200 1084 -448 1595 -117 241 -188 364 -342 595 -212 318 -397 543 -684 830
-107 108 -247 240 -310 294 -196 168 -462 366 -617 461 l-63 38 0 126 c0 236
-27 741 -56 1061 -83 928 -251 1490 -477 1599 -255 123 -788 -308 -1543 -1249
-162 -201 -595 -782 -609 -817 0 -1 -936 83 -2080 186 l-2080 187 -45 84
c-252 469 -324 600 -455 830 -482 843 -833 1318 -1012 1369 -19 6 -42 4 -68
-4z m680 -5685 c286 -89 478 -348 479 -645 0 -122 -17 -193 -72 -305 -77 -158
-227 -288 -392 -341 -93 -30 -263 -37 -364 -15 -238 53 -438 249 -501 491 -22
83 -22 252 0 335 51 198 213 383 399 458 140 57 312 65 451 22z m5013 -323
c106 -37 176 -82 263 -167 62 -62 85 -94 122 -170 99 -203 101 -397 6 -595
-71 -148 -172 -248 -324 -321 -182 -87 -395 -84 -585 9 -67 33 -103 59 -171
127 -74 72 -93 99 -132 180 -54 114 -67 170 -67 298 0 116 19 201 64 292 88
179 246 308 440 361 104 28 283 22 384 -14z m-2691 -1619 c11 -13 63 -106 114
-208 84 -165 101 -193 164 -256 94 -96 174 -122 277 -94 89 25 130 97 148 259
13 123 29 161 67 161 35 0 87 -57 112 -124 112 -300 -121 -590 -435 -538 -124
21 -198 66 -359 223 l-142 139 -51 -68 c-110 -148 -278 -280 -401 -316 -119
-35 -289 -11 -388 53 -135 87 -195 235 -197 486 0 104 3 138 17 170 24 53 45
75 74 75 61 0 71 -21 98 -208 18 -124 37 -196 67 -257 62 -125 188 -166 324
-106 115 51 199 157 328 412 91 179 118 219 146 219 9 0 26 -10 37 -22z"/>
<path d="M10845 13686 c-115 -28 -213 -108 -263 -214 -24 -50 -27 -69 -27
-162 0 -94 3 -111 27 -161 38 -76 109 -146 188 -183 58 -28 75 -31 160 -31 85
0 102 3 160 31 193 92 275 315 187 507 -49 108 -155 191 -275 216 -64 13 -92
13 -157 -3z"/>
<path d="M15808 13361 c-31 -10 -72 -28 -91 -40 -52 -32 -116 -106 -145 -169
-24 -50 -27 -69 -27 -157 0 -87 4 -107 27 -158 33 -70 115 -155 181 -185 150
-70 307 -46 427 65 130 120 162 292 84 450 -80 164 -285 251 -456 194z"/>
</g>
</svg>
